<?xml version="1.0" ?><svg viewBox="0 0 64 64" xmlns="http://www.w3.org/2000/svg"><defs><style>.cls-1{fill:#f6e266;}.cls-2{fill:#f4dd45;}.cls-3{fill:#eaafa5;}.cls-4{fill:#f1cbc6;}.cls-5{fill:#665e66;}.cls-6{fill:#544f57;}.cls-7{fill:#756e78;}</style></defs><g data-name="Winter Avatar" id="Winter_Avatar-27"><path class="cls-1" d="M44.6,46.69a6.47,6.47,0,0,1,6.48,6.48v1.12A1.71,1.71,0,0,1,49.37,56H14.63a1.7,1.7,0,0,1-1.71-1.71V53.17a6.47,6.47,0,0,1,6.48-6.48Z" id="path37815-0-0"/><path class="cls-2" d="M41,46.7a6.46,6.46,0,0,1,6.48,6.47v1.12A1.71,1.71,0,0,1,45.73,56h3.64a1.71,1.71,0,0,0,1.71-1.71V53.17A6.46,6.46,0,0,0,44.6,46.7Z" id="path161541"/><path class="cls-1" d="M42.52,49.83c3.64-4.58,9.25-16.1,9.25-21.6C51.77,18.43,42.92,8,32,8S12.23,18.43,12.23,28.23c0,5.5,5.61,17,9.25,21.6Z" id="path31776-9"/><path class="cls-3" d="M24.76,43c1.13,3.25,3.67,5.66,7.24,5.66s6.1-2.41,7.24-5.66l-2.35-4.28Z" id="path34031-3"/><path class="cls-4" d="M32,9.58A13.93,13.93,0,0,1,46,22.34l.56,6.74a14.59,14.59,0,1,1-29.08,0L18,22.34A14,14,0,0,1,32,9.58Z" id="path22985-3-8-4"/><path class="cls-3" d="M40.94,19.25a14.34,14.34,0,0,1,.61,3.09l.35,4.19.21,2.55A14.59,14.59,0,0,1,29.78,44.7a14.78,14.78,0,0,0,2.22.17A14.59,14.59,0,0,0,46.54,29.08l-.21-2.55Z" id="path101009-9-3-9-4"/><path class="cls-5" d="M40.3,12.26A13.79,13.79,0,0,1,46,22.34l.35,4.19c-7,2.07-13.07-5.2-13.07-5.2l-.73-4.6Z" id="path66719-4"/><path class="cls-6" d="M32,9.58a14.78,14.78,0,0,0-2.22.17,14,14,0,0,1,6.09,2.51,13.79,13.79,0,0,1,5.68,10.08l.35,4.19v.19a9.14,9.14,0,0,0,4.42-.19L46,22.34A13.93,13.93,0,0,0,32,9.58Z" id="path101011-3-6-2-4"/><path class="cls-7" d="M32,9.58A13.94,13.94,0,0,0,18,22.34l-.44,5.31h0A27.3,27.3,0,0,0,40.3,12.26,14.06,14.06,0,0,0,32,9.58Z" id="path22989-5-31-7"/><path class="cls-5" d="M32,9.58a14.55,14.55,0,0,0-2.21.17,14,14,0,0,1,9,5.32,20.05,20.05,0,0,0,1.55-2.81A14,14,0,0,0,32,9.58Z" id="path186167-9-0-6"/><path class="cls-1" d="M15.9,24s6.63-7.95,16.1-7.95,16.1,8,16.1,8a13.14,13.14,0,0,0-1.83-6.09c-2.56-4-8-8.64-14.45-8.64a16,16,0,0,0-12.29,6.46A20.64,20.64,0,0,0,15.9,24Z" id="path31119-4"/><path d="M35.57,36.93a6.84,6.84,0,0,1-3.57,1,6.92,6.92,0,0,1-3.58-1,1,1,0,0,0-1.38.24,1,1,0,0,0,.24,1.4,9.1,9.1,0,0,0,9.44,0,1,1,0,0,0,.24-1.4A1,1,0,0,0,35.57,36.93Z"/><path d="M26.93,35A4.18,4.18,0,0,0,31,31.84h2a4.19,4.19,0,1,0,0-2H31A4.18,4.18,0,1,0,26.93,35Zm10.13-6.37a2.19,2.19,0,1,1-2.18,2.19A2.19,2.19,0,0,1,37.06,28.65Zm-10.13,0a2.19,2.19,0,1,1-2.18,2.19A2.19,2.19,0,0,1,26.93,28.65Z"/><path d="M17.69,45.91a7.48,7.48,0,0,0-5.77,7.26v1.12A2.71,2.71,0,0,0,14.63,57H49.37a2.71,2.71,0,0,0,2.71-2.71V53.17a7.48,7.48,0,0,0-5.77-7.26c3.2-5.54,6.46-13.25,6.46-17.68C52.77,18.21,43.89,7,32,7S11.23,18.21,11.23,28.23C11.23,32.66,14.49,40.37,17.69,45.91ZM45.26,25.74c-4.76.89-9.06-2.83-10.61-4.39a26.45,26.45,0,0,0,3.08-3.26A23.9,23.9,0,0,1,45,22.38v0Zm-26.59.79L19,22.42v0c2.63-2.24,7.29-5.33,13-5.33a16,16,0,0,1,3.64.44A27,27,0,0,1,18.67,26.53Zm-.21,2.63.05-.6a29.13,29.13,0,0,0,14.58-5.93c1.5,1.56,5.62,5.28,10.66,5.28a9.74,9.74,0,0,0,1.68-.16l.11,1.41a13.59,13.59,0,1,1-27.08,0ZM32,45.87A15.67,15.67,0,0,0,37,45a6.15,6.15,0,0,1-10,0A15.74,15.74,0,0,0,32,45.87ZM32,9C42.57,9,50.77,19.34,50.77,28.23c0,5.3-5.65,16.72-9,21a1,1,0,0,0,.16,1.41,1,1,0,0,0,.62.21,1,1,0,0,0,.78-.37,31.75,31.75,0,0,0,1.89-2.71,5.47,5.47,0,0,1,4.89,5.42v1.12a.71.71,0,0,1-.71.71H33V49.54c3.17-.37,5.74-2.52,7-5.93a15.17,15.17,0,0,0,3.43-2.77A15.66,15.66,0,0,0,47.54,29l-.38-4.55a2.29,2.29,0,0,1,.17.19,1,1,0,0,0,.77.36,1,1,0,0,0,.64-.23,1,1,0,0,0,.13-1.41c-.29-.34-7-8.31-16.87-8.31s-16.59,8-16.87,8.31a1,1,0,1,0,1.54,1.28,2.29,2.29,0,0,1,.17-.19L16.46,29a15.62,15.62,0,0,0,4.07,11.84A15.34,15.34,0,0,0,24,43.61c1.3,3.41,3.87,5.56,7.05,5.93V55H14.63a.71.71,0,0,1-.71-.71V53.17a5.47,5.47,0,0,1,4.89-5.42,31.75,31.75,0,0,0,1.89,2.71,1,1,0,1,0,1.56-1.25c-3.37-4.24-9-15.68-9-21C13.23,19.34,21.43,9,32,9Z"/></g></svg>