<?xml version="1.0" ?><svg viewBox="0 0 64 64" xmlns="http://www.w3.org/2000/svg"><defs><style>.cls-1{fill:#ffef52;}.cls-2{fill:#52bdff;}.cls-3{fill:#e6d74a;}.cls-4{fill:#4aaae6;}.cls-5{fill:#f3f9ff;}.cls-6{fill:#1b212d;}</style></defs><g id="Butterfly"><path class="cls-1" d="M29.61,21.89a22.54,22.54,0,0,0-2.76-3.35c-3.73-3.74-8.54-5.93-12.93-5.91a10,10,0,0,0-7.16,2.76C2.08,20.07,3.49,29.06,9.91,35.48a22.51,22.51,0,0,0,4,3.18c-2.48,4.14-2.43,8.64.12,11.19,3.3,3.31,9.65,2.32,14.18-2.21a14.93,14.93,0,0,0,1.39-1.59h4.78a14.93,14.93,0,0,0,1.39,1.59c4.53,4.53,10.88,5.52,14.18,2.21,2.55-2.55,2.6-7.05.12-11.19a22.51,22.51,0,0,0,4-3.18c6.42-6.42,7.83-15.41,3.15-20.09a10,10,0,0,0-7.16-2.76c-4.39,0-9.2,2.17-12.93,5.91a22.54,22.54,0,0,0-2.76,3.35Z" id="path7146-3"/><path class="cls-2" d="M20.2,20.85c1.93,2.15,4.18,8.14,2,10.08s-7.88-.92-9.81-3.07a5.23,5.23,0,0,1,7.77-7Z" id="path7148-9"/><path class="cls-2" d="M43.8,20.85c-1.93,2.15-4.18,8.14-2,10.08s7.88-.92,9.81-3.07a5.23,5.23,0,1,0-7.77-7Z" id="path7151-0"/><path class="cls-2" d="M23.17,46.21c1.45-1.61,3.13-6.09,1.53-7.54s-5.9.69-7.35,2.29a3.92,3.92,0,0,0,5.82,5.25Z" id="path7153-8"/><path class="cls-2" d="M40.83,46.21c-1.44-1.61-3.13-6.09-1.52-7.54s5.89.69,7.34,2.29a3.92,3.92,0,0,1-5.82,5.25Z" id="path7155-8"/><path class="cls-3" d="M50.08,12.63A14.83,14.83,0,0,0,48,12.8a9.46,9.46,0,0,1,5.24,2.59c4.68,4.68,3.27,13.67-3.15,20.09a22.07,22.07,0,0,1-4,3.18c2.48,4.14,2.43,8.64-.12,11.2a6.59,6.59,0,0,1-3.16,1.72A7.69,7.69,0,0,0,50,49.86c2.55-2.56,2.6-7.06.12-11.2a22.07,22.07,0,0,0,4-3.18c6.42-6.42,7.83-15.41,3.15-20.09A10,10,0,0,0,50.08,12.63Z" id="ellipse7125-9-5"/><path class="cls-3" d="M13.92,12.63A10.88,10.88,0,0,0,12,12.8a19.83,19.83,0,0,1,10.85,5.74,22.54,22.54,0,0,1,2.76,3.35V46.05a16.14,16.14,0,0,1-1.39,1.59,14.19,14.19,0,0,1-7,3.94c3.37.8,7.69-.61,11-3.94a16.14,16.14,0,0,0,1.39-1.59V21.89a22.54,22.54,0,0,0-2.76-3.35C23.12,14.8,18.31,12.61,13.92,12.63Z" id="path9769"/><path class="cls-4" d="M40.93,38.19a2.26,2.26,0,0,0-1.62.48.5.5,0,0,0-.07.08A10.16,10.16,0,0,1,42.65,41a3.91,3.91,0,0,1-.29,5.53,3.61,3.61,0,0,1-.6.45,3.91,3.91,0,0,0,4.89-6,9.92,9.92,0,0,0-5.72-2.77Z" id="path9792"/><path class="cls-4" d="M23.07,38.19a7.26,7.26,0,0,0-2.31.56c1.48,1.52-.17,5.88-1.59,7.46a4.22,4.22,0,0,1-.92.73,3.91,3.91,0,0,0,4.92-.73c1.45-1.61,3.13-6.09,1.52-7.54A2.26,2.26,0,0,0,23.07,38.19Z" id="path9790"/><path class="cls-4" d="M47.42,19.13a5.33,5.33,0,0,0-1.71.4,5.29,5.29,0,0,1,1.48.94,5.23,5.23,0,0,1,.39,7.39,13.82,13.82,0,0,1-5.49,3.29c2.34,1.44,7.64-1.24,9.49-3.29a5.24,5.24,0,0,0-4.16-8.73Z" id="path9788"/><path class="cls-4" d="M16.58,19.13a5.33,5.33,0,0,0-2.29.4,5.26,5.26,0,0,1,1.91,1.32c1.93,2.15,4.19,8.14,2,10.08a2.7,2.7,0,0,1-.33.22c1.72.55,3.38.63,4.33-.22,2.15-1.94-.11-7.93-2-10.08A5.24,5.24,0,0,0,16.58,19.13Z" id="path9774"/><rect class="cls-5" height="37.21" id="rect7111-2" rx="2.39" width="4.78" x="29.61" y="16.79"/><path class="cls-6" d="M6.06,14.68c-2.5,2.5-3.52,6.14-2.87,10.26a20.77,20.77,0,0,0,6,11.25A24.35,24.35,0,0,0,12.59,39c-2.22,4.3-2,8.86.74,11.57a8,8,0,0,0,5.78,2.25,11.39,11.39,0,0,0,1.72-.14,14.85,14.85,0,0,0,7.78-4v3a3.39,3.39,0,1,0,6.78,0v-3a14.85,14.85,0,0,0,7.78,4,11.39,11.39,0,0,0,1.72.14,8,8,0,0,0,5.78-2.25c2.7-2.7,3-7.26.74-11.57a24.35,24.35,0,0,0,3.39-2.8,20.77,20.77,0,0,0,6-11.25c.65-4.12-.37-7.76-2.87-10.26a11.06,11.06,0,0,0-7.85-3c-.11,0-7-.42-13.65,6.2-.38.38-.72.78-1.07,1.18A3.38,3.38,0,0,0,33,16V12a1,1,0,0,1,2,0,1,1,0,0,0,2,0,3,3,0,0,0-5-2.21A3,3,0,0,0,27,12a1,1,0,1,0,2,0,1,1,0,0,1,2,0v4A3.39,3.39,0,0,0,28.63,19c-.35-.4-.7-.8-1.07-1.18-3.91-3.91-9-6.22-13.65-6.2A10.9,10.9,0,0,0,6.06,14.68Zm29.33,7.54a21.83,21.83,0,0,1,2.47-3c3.51-3.52,8-5.61,12.15-5.61a9.21,9.21,0,0,1,6.52,2.47c2,2,2.85,5.06,2.31,8.53a18.77,18.77,0,0,1-5.45,10.14,21,21,0,0,1-3.84,3,1,1,0,0,0-.33,1.36c2.24,3.75,2.26,7.75,0,10a6.53,6.53,0,0,1-5.77,1.55,13,13,0,0,1-7-3.77,16,16,0,0,1-1.09-1.23Zm-4.78-3a1.39,1.39,0,1,1,2.78,0v3H30.61Zm0,5h2.78V28H30.61Zm0,5.71h2.78v3.7H30.61Zm0,5.7h2.78v3.7H30.61Zm0,5.7h2.78v3.7H30.61Zm0,5.7h2.78v4.57a1.39,1.39,0,1,1-2.78,0ZM26.14,19.24a21.83,21.83,0,0,1,2.47,3V45.7a16,16,0,0,1-1.09,1.23,13,13,0,0,1-7,3.77,6.53,6.53,0,0,1-5.77-1.55c-2.23-2.23-2.21-6.23,0-10a1,1,0,0,0-.33-1.36,21,21,0,0,1-3.84-3A18.77,18.77,0,0,1,5.16,24.63c-.54-3.47.28-6.5,2.31-8.53a8.93,8.93,0,0,1,6.45-2.47C14,13.65,20.14,13.24,26.14,19.24Z"/><path class="cls-6" d="M16.9,31.86a9.52,9.52,0,0,0,3.34.7,3.85,3.85,0,0,0,2.67-.89c1.24-1.13,1.53-3.24.8-6a14.65,14.65,0,0,0-2.77-5.53,6.26,6.26,0,0,0-4.31-2.05,6.17,6.17,0,0,0-4.49,1.6,6.23,6.23,0,0,0-.46,8.8A14.81,14.81,0,0,0,16.9,31.86ZM13.48,21.21a4.23,4.23,0,0,1,2.83-1.09h.22a4.18,4.18,0,0,1,2.92,1.39,12.58,12.58,0,0,1,2.33,4.71c.51,1.9.43,3.38-.21,3.95s-2.12.51-4-.19a12.79,12.79,0,0,1-4.44-2.8A4.24,4.24,0,0,1,13.48,21.21Z"/><path class="cls-6" d="M43.77,32.56a9.52,9.52,0,0,0,3.33-.7,14.81,14.81,0,0,0,5.22-3.33,6.23,6.23,0,0,0-9.26-8.35,14.65,14.65,0,0,0-2.77,5.53c-.73,2.72-.44,4.83.8,6A3.86,3.86,0,0,0,43.77,32.56Zm.78-11a4.23,4.23,0,0,1,6-.31,4.24,4.24,0,0,1,.31,6A12.79,12.79,0,0,1,46.39,30c-1.84.7-3.32.77-4,.19C41,28.85,42.72,23.55,44.55,21.52Z"/><path class="cls-6" d="M16.61,40.29a4.93,4.93,0,0,0,.36,7,4.88,4.88,0,0,0,3.28,1.26h.26a4.93,4.93,0,0,0,3.4-1.62A11.11,11.11,0,0,0,26,42.64c.58-2.16.35-3.79-.67-4.71C23.09,35.88,18.17,38.57,16.61,40.29Zm7.5,1.83a9.27,9.27,0,0,1-1.69,3.42,2.9,2.9,0,0,1-4.11.21,2.92,2.92,0,0,1-.22-4.12,8.92,8.92,0,0,1,5.13-2.45,1.2,1.2,0,0,1,.81.23C24.42,39.77,24.46,40.83,24.11,42.12Z"/><path class="cls-6" d="M40.09,46.88a4.92,4.92,0,1,0,7.3-6.59,11,11,0,0,0-4-2.55c-2.09-.8-3.73-.73-4.75.19s-1.26,2.55-.68,4.71A11.11,11.11,0,0,0,40.09,46.88ZM40,39.41a1.19,1.19,0,0,1,.81-.22,5.52,5.52,0,0,1,1.89.42,9.32,9.32,0,0,1,3.23,2,2.92,2.92,0,0,1-.22,4.12,2.9,2.9,0,0,1-4.11-.21,9.27,9.27,0,0,1-1.69-3.42C39.55,40.83,39.58,39.77,40,39.41Z"/></g></svg>