<?xml version="1.0" ?><svg viewBox="0 0 64 64" xmlns="http://www.w3.org/2000/svg"><defs><style>.cls-1{fill:#52ffaa;}.cls-2{fill:#17e198;}.cls-3{fill:#1b212d;}</style></defs><g id="Caterpillar"><path class="cls-1" d="M51.14,15a8.86,8.86,0,0,0-8.85,8.86,8.76,8.76,0,0,0,1.42,4.8h0v5.93a4.85,4.85,0,0,1-4.86,4.86H11.79A7.79,7.79,0,0,0,4,47.24a7.45,7.45,0,0,0,7.79,7.08H44.45A14.13,14.13,0,0,0,58.58,40.19V28.66A8.86,8.86,0,0,0,51.14,15Z" id="path8267-2"/><path class="cls-2" d="M51.14,15a9.43,9.43,0,0,0-2,.23,8.86,8.86,0,0,1,5.44,13.44V40.19A14.13,14.13,0,0,1,40.45,54.32h4A14.13,14.13,0,0,0,58.58,40.19V28.66A8.86,8.86,0,0,0,51.14,15Z" id="path10320"/><path class="cls-3" d="M55.42,15V12.13a1.47,1.47,0,0,1,2.94,0,1,1,0,0,0,2,0,3.47,3.47,0,0,0-6.94,0v2.14a9.38,9.38,0,0,0-4.55,0V12.13a3.47,3.47,0,0,0-6.94,0,1,1,0,1,0,2,0,1.47,1.47,0,0,1,2.94,0V15a9.84,9.84,0,0,0-4.16,14v5.65a3.86,3.86,0,0,1-3.85,3.86H11.79A8.81,8.81,0,0,0,3,47.29a8.45,8.45,0,0,0,8.79,8H44.45A15.18,15.18,0,0,0,59.58,40.19V28.94a9.84,9.84,0,0,0-4.16-14ZM11.74,53.32A6.45,6.45,0,0,1,5,47.24a6.8,6.8,0,0,1,6.79-6.79h1.69c-1.33,2.23-2.73,6.56.37,12.87Zm4.36,0c-4.1-7.51-1.1-11.8-.17-12.87H27.08c-1.33,2.23-2.73,6.56.37,12.87Zm28.35,0H29.7c-4.1-7.51-1.1-11.8-.16-12.87h9.55c-.18,2.21-.14,6.61,2.51,9.81a9.44,9.44,0,0,0,4.45,3A14.17,14.17,0,0,1,44.45,53.32ZM57.58,40.19a13.12,13.12,0,0,1-7.19,11.69c-3.25-.05-5.69-1-7.24-2.89-2.46-3-2.18-7.47-2-9A6,6,0,0,0,43,38.74a6.8,6.8,0,0,0,.5-.59,12.34,12.34,0,0,0,6.84,2,16.58,16.58,0,0,0,7.24-1.81Zm.17-12.1A8.88,8.88,0,0,1,51,31.28a1,1,0,0,0,0,2A10.75,10.75,0,0,0,57.58,31V36.1c-7,3.8-11.65,1.33-13.14.27a6.24,6.24,0,0,0,.27-1.78V28.66a1,1,0,0,0-.16-.55,7.78,7.78,0,0,1-1.26-4.26,7.86,7.86,0,1,1,14.46,4.24Z"/><path class="cls-3" d="M48.25,20.44a1,1,0,0,0-1,1v1.73a1,1,0,0,0,2,0V21.44A1,1,0,0,0,48.25,20.44Z"/><path class="cls-3" d="M53.75,20.44a1,1,0,0,0-1,1v1.73a1,1,0,0,0,2,0V21.44A1,1,0,0,0,53.75,20.44Z"/></g></svg>