<?xml version="1.0" ?><svg viewBox="0 0 64 64" xmlns="http://www.w3.org/2000/svg"><defs><style>.cls-1{fill:#d9387c;}.cls-2{fill:#dd5891;}.cls-3{fill:#f7f8fa;}</style></defs><g id="Crab"><path class="cls-1" d="M16.62,31.19l-3.76-.68a1.83,1.83,0,0,0-.47,0,2,2,0,0,0-1.26.55L8.22,33.79A2,2,0,0,0,11,36.69l2.17-2.06,2.75.49.22,2.82-4,1.45a2,2,0,0,0-1.2,1.21L9.77,43.85a2,2,0,1,0,3.77,1.33l.84-2.35,2.94-1.07L19,44.56,16.5,46a2,2,0,0,0-1,1.57l-.28,3.1a2,2,0,0,0,4,.37l.19-2.05L22,47.49Z" id="path220714-8"/><path class="cls-1" d="M45.38,31.19l3.76-.68a1.83,1.83,0,0,1,.47,0,2,2,0,0,1,1.26.55l2.91,2.76A2,2,0,0,1,51,36.69l-2.17-2.06-2.75.49-.22,2.82,4,1.45a2,2,0,0,1,1.2,1.21l1.15,3.25a2,2,0,0,1-3.77,1.33l-.84-2.35-2.94-1.07L43,44.56,45.5,46a2,2,0,0,1,1,1.57l.28,3.1a2,2,0,0,1-4,.37l-.19-2.05L40,47.49Z" id="path221205-7"/><path class="cls-1" d="M17.5,29.53l-3-3,3.13-2.68,3,3Z" id="path218554-2"/><path class="cls-1" d="M44.5,29.53l3-3-3.12-2.68-3,3Z" id="path218637-4"/><path class="cls-2" d="M28,25c1-.08,2-.12,3.05-.12.82,0,1.63,0,2.42.07l4.32.58c4.95,1.14,8.36,4,8.36,9.87h0a15.1,15.1,0,0,1-30.2,0c0-5.68,3.13-8.49,7.75-9.72Z" id="path221908-9"/><path class="cls-1" d="M31,24.84c-.6,0-1.18,0-1.75,0l.68,0,4.31.58c5,1.14,8.37,4,8.37,9.87a15.1,15.1,0,0,1-13.36,15,14.55,14.55,0,0,0,1.75.11,15.1,15.1,0,0,0,15.1-15.1c0-5.92-3.41-8.73-8.36-9.87l-4.32-.58C32.63,24.87,31.82,24.84,31,24.84Z" id="path215117"/><path class="cls-2" d="M15.25,13.27c-2.74-.73-6.47,4.3-7.2,7A5.13,5.13,0,1,0,18,23C18.7,20.22,18,14,15.25,13.27Z" id="path517596-0-6"/><path class="cls-2" d="M46.26,13.47a2.1,2.1,0,0,1,.49-.2c2.73-.73,6.46,4.3,7.2,7A5.13,5.13,0,0,1,44,23C43.34,20.4,43.93,14.77,46.26,13.47Z" id="path218641-5"/><path class="cls-3" d="M28,25.2A2.21,2.21,0,1,1,25.78,23,2.21,2.21,0,0,1,28,25.2Z" id="path221794-2"/><path class="cls-3" d="M37.78,25.2a2.21,2.21,0,1,1-2.2-2.2A2.21,2.21,0,0,1,37.78,25.2Z" id="path221899-7"/><path class="cls-1" d="M47.27,13.2a1.81,1.81,0,0,0-.52.07,1.74,1.74,0,0,0-.49.2,2.52,2.52,0,0,0-.44.31,12.89,12.89,0,0,1,4.86,6.53,5.14,5.14,0,0,1-3.33,6.19A5.14,5.14,0,0,0,54,20.31C53.26,17.74,49.94,13.16,47.27,13.2Z" id="path225206"/><path class="cls-1" d="M14.72,13.2a3.47,3.47,0,0,0-1.81.58c2,1.71,2.44,6.78,1.79,9.18a5.14,5.14,0,0,1-3.31,3.54l.29.09A5.13,5.13,0,0,0,18,23C18.75,20,17.88,13.25,14.72,13.2Z" id="path221533"/><path d="M48.53,35.7l1.8,1.71a3,3,0,0,0,2.07.83h.08a3,3,0,0,0,2.09-.94,3,3,0,0,0-.11-4.24l-2.9-2.76a3,3,0,0,0-1.9-.81,2.75,2.75,0,0,0-.7,0l-3,.54c-.07-.13-.12-.26-.19-.39l2.05-2a5.67,5.67,0,0,0,1.17.13,6.28,6.28,0,0,0,1.6-.21,6.13,6.13,0,0,0,4.33-7.51,14.32,14.32,0,0,0-3.07-5.23c-1.85-2.05-3.75-2.94-5.35-2.52C43,13.23,42.21,20,43.07,23.22c0,.13.1.25.14.38l-2,2a17.12,17.12,0,0,0-2.45-.89,3.19,3.19,0,0,0-6.07-.86c-1.3-.05-2.68,0-3.95,0a3.19,3.19,0,0,0-6.1,1,14.64,14.64,0,0,0-1.8.69l-2-2c0-.13.1-.24.14-.38,1.69-6.3-2.25-15.61-8.77-8.4a14.18,14.18,0,0,0-3.07,5.23,6.14,6.14,0,0,0,4.33,7.51,6.22,6.22,0,0,0,1.6.21,5.82,5.82,0,0,0,1.17-.13l2,2.05c-.07.13-.14.25-.2.38l-3-.54a2.36,2.36,0,0,0-.7,0,3,3,0,0,0-1.9.81l-2.9,2.76a3,3,0,0,0-.11,4.24,3,3,0,0,0,2.09.94H9.6a3,3,0,0,0,2.07-.83l1.8-1.71,1.46.26c0,.45,0,.88.09,1.31l-3.24,1.18A3,3,0,0,0,10,40.27L8.83,43.51a3,3,0,0,0,1.83,3.83,2.85,2.85,0,0,0,1,.18,3,3,0,0,0,2.82-2l.68-1.91L16.83,43c.23.42.48.82.74,1.22L16,45.07a3,3,0,0,0-1.54,2.35l-.29,3.1a3,3,0,0,0,.68,2.2,3,3,0,0,0,2,1.07h.28a3,3,0,0,0,3-2.72l.15-1.51L22,48.66a16,16,0,0,0,18.1,0l1.64.91.15,1.51a3,3,0,0,0,3,2.72h.28a2.94,2.94,0,0,0,2-1.07,3,3,0,0,0,.68-2.2l-.29-3.1A3,3,0,0,0,46,45.07l-1.56-.85A12.79,12.79,0,0,0,45.16,43l1.68.61.68,1.91a3,3,0,0,0,2.83,2,2.88,2.88,0,0,0,1-.18,3,3,0,0,0,1.83-3.83L52,40.27a3,3,0,0,0-1.8-1.82L47,37.27c.05-.43.08-.86.1-1.31Zm.78-4.2a1,1,0,0,1,.24,0,1,1,0,0,1,.63.28l2.91,2.75a1,1,0,0,1-.67,1.73.87.87,0,0,1-.71-.28L49.54,33.9a1,1,0,0,0-.87-.26l-1.67.3a12.27,12.27,0,0,0-.35-2ZM45.92,15.27C46.63,17,47.51,19.53,47.4,21a1,1,0,0,0,.92,1.07h.08a1,1,0,0,0,1-.92c.16-2.05-1-5.15-1.72-6.86a5.73,5.73,0,0,1,2.69,1.89A12.45,12.45,0,0,1,53,20.57a4.08,4.08,0,0,1-.41,3.13,4.12,4.12,0,0,1-5.65,1.51A4.08,4.08,0,0,1,45,22.7,11.83,11.83,0,0,1,45.92,15.27ZM44.19,25.45a6.24,6.24,0,0,0,1.59,1.39l-1.21,1.21A9.61,9.61,0,0,0,43,26.67ZM35.58,24a1.19,1.19,0,0,1,1.19,1.25,1.23,1.23,0,0,1-1.19,1.16,1.21,1.21,0,1,1,0-2.41Zm-9.8,0A1.13,1.13,0,0,1,27,25.2,1.21,1.21,0,1,1,25.78,24ZM11.94,25.63A4.14,4.14,0,0,1,9,20.57a12.3,12.3,0,0,1,2.62-4.41,5.73,5.73,0,0,1,2.69-1.89c-.73,1.71-1.88,4.81-1.73,6.86a1,1,0,0,0,1,.92h.08A1,1,0,0,0,14.6,21c-.11-1.45.77-4,1.48-5.72A11.86,11.86,0,0,1,17,22.7a4.15,4.15,0,0,1-5.06,2.93Zm4.28,1.21a6,6,0,0,0,1.58-1.39L19,26.67a9.2,9.2,0,0,0-1.58,1.39Zm-2.89,6.8a1,1,0,0,0-.87.26L10.29,36a1,1,0,0,1-1.41,0,1,1,0,0,1,0-1.42l2.91-2.75a1,1,0,0,1,.63-.28.86.86,0,0,1,.23,0l2.66.47a12.07,12.07,0,0,0-.35,2ZM14,41.89a1,1,0,0,0-.6.61l-.84,2.35a1,1,0,0,1-.51.57,1,1,0,0,1-.77,0,1,1,0,0,1-.6-1.28l1.15-3.24a1,1,0,0,1,.6-.61l2.93-1.06a15.68,15.68,0,0,0,.6,1.91Zm4.84,6.18a1,1,0,0,0-.52.78l-.19,2a1,1,0,0,1-1.09.91,1,1,0,0,1-.9-1.09l.29-3.1a1,1,0,0,1,.51-.78l1.82-1a15.6,15.6,0,0,0,1.45,1.48Zm-2-12.71c0-4.41,2-7.11,6.17-8.48a3.19,3.19,0,0,0,5.84-1c1.14-.06,2.36-.06,3.54,0a3.18,3.18,0,0,0,5.93.85c4.55,1.3,6.72,4.05,6.72,8.64a14.1,14.1,0,0,1-28.2,0ZM45,46.83a1,1,0,0,1,.51.78l.29,3.1a1,1,0,1,1-2,.18l-.19-2a1,1,0,0,0-.52-.78l-1.38-.76a15.68,15.68,0,0,0,1.46-1.48Zm4.51-6.5a1,1,0,0,1,.6.61l1.15,3.24a1,1,0,1,1-1.88.67l-.84-2.35a1,1,0,0,0-.6-.61l-2-.72a16.38,16.38,0,0,0,.61-1.91Z"/></g></svg>