<?xml version="1.0" ?><svg viewBox="0 0 64 64" xmlns="http://www.w3.org/2000/svg"><defs><style>.cls-1{fill:#94d8e5;}.cls-2{fill:#f6e782;}.cls-3{fill:#7bd1e0;}.cls-4{fill:#655e66;}.cls-5{fill:#544f56;}</style></defs><g data-name="Surgeon Fish" id="Surgeon_Fish"><path class="cls-1" d="M53.56,19.46a2.9,2.9,0,1,1-2.9-2.89A2.9,2.9,0,0,1,53.56,19.46Z" id="path65656-2-2"/><path class="cls-1" d="M35.88,14.43A4.42,4.42,0,1,1,31.46,10,4.42,4.42,0,0,1,35.88,14.43Z" id="path65761-9-7"/><path class="cls-1" d="M23.05,23.67a2.9,2.9,0,1,1-2.89-2.89A2.89,2.89,0,0,1,23.05,23.67Z" id="path71055-1-0"/><path class="cls-2" d="M43.65,25.24a11.39,11.39,0,0,0-5.3-2.55,13,13,0,0,0-7.17,1.2,44,44,0,0,0-8.83,6.16,30.07,30.07,0,0,0-6.69,7.86,2.41,2.41,0,0,0,0,2c.87,1.84,1.76,3.3,1.76,3.3l1.72,5.17.3,3.46a2.14,2.14,0,0,0,1.05,1.58A29.49,29.49,0,0,0,31,55.83a48,48,0,0,0,6.33.09,5.56,5.56,0,0,0,3.85-2,9.75,9.75,0,0,0,1-2.07L46,50.56l-.07,2.88a1,1,0,0,0,1.31,1.09A6.51,6.51,0,0,0,51,52c1.37-2.23,0-5.31,0-5.31Z" id="path242725-6"/><path class="cls-1" d="M20.73,49.56c5.92,3.59,17.92,3.57,23.51,1.71,7.06-2.36,12.56-10.55,10.21-17.6a11.61,11.61,0,0,0-4.21-5.62L43,25.53,32.53,28.4,21.62,38.31Z" id="path239088-9"/><path class="cls-2" d="M43.35,39.48a39.68,39.68,0,0,0-5.41,3.19,1.61,1.61,0,0,0,0,2.76,7.41,7.41,0,0,0,4.52,1.31C45.63,46.38,47,43.2,47,43.2Z" id="path53183-6-1"/><path class="cls-3" d="M43,25.53l-.82.23a15.51,15.51,0,0,1,5.25,2.49h0a11.55,11.55,0,0,1,4.2,5.61c2.36,7.06-3.14,15.25-10.2,17.6a24.09,24.09,0,0,1-5.08,1,29.94,29.94,0,0,0,7.94-1.2c7.06-2.36,12.56-10.55,10.21-17.6a11.61,11.61,0,0,0-4.21-5.62Z" id="path129616"/><path class="cls-4" d="M40.58,25a15.54,15.54,0,0,0-4.86.76c-6.17,2.06-17.24,10.62-18.34,17.45-.38-.11-.8-.2-1.24-.29L17,46.79s-1.33,3-.2,4a20.26,20.26,0,0,0,2.28-2.46,10,10,0,0,0,2.27,1.59h0L32,46.37a3.68,3.68,0,0,0,2.46-3.83c-.4-1.79-2.3-2.83-3.84-1.06-.83,1-.85,2-2.69,2.66l-.86.28a3.14,3.14,0,0,1-4-2.07,4.32,4.32,0,0,1,1.59-4.71l2.81-2.23c1-.78,2.36-.26,3.5-.27a2,2,0,0,0,1.08-.27l1.71-1.3a1.82,1.82,0,0,0,.61-1c.24-1.14,0-2.55,1.12-3.11,5.32-2.71,11.35-2.09,14.75-1.39A16.57,16.57,0,0,0,40.58,25Z" id="path257832-9"/><path class="cls-5" d="M40.58,25a15.85,15.85,0,0,0-2.58.21,16.71,16.71,0,0,1,8.29,2.35,30.11,30.11,0,0,1,4,.54A16.57,16.57,0,0,0,40.58,25Z" id="path129618"/><path class="cls-2" d="M11.66,42.42A9.12,9.12,0,0,0,9,42.7c-1.85.71-2.52,3.61-1.51,6.64s3.28,4.95,5.19,4.4c1.6-.53,4.82-3.28,6.44-5.41,0,0,2-2.29,1.61-3.41s-3.33-1.76-3.33-1.76A23.26,23.26,0,0,0,11.66,42.42Z" id="path249679-6"/><path class="cls-4" d="M48.41,32.06A1.71,1.71,0,1,1,46.25,31,1.7,1.7,0,0,1,48.41,32.06Z" id="path251764-2"/><path d="M49.21,42.39a12.54,12.54,0,0,1-6.85-6.2,1,1,0,0,0-1.8.88,14.24,14.24,0,0,0,1.28,2.07,40.1,40.1,0,0,0-4.47,2.71,2.75,2.75,0,0,0-1.2,2.3,2.59,2.59,0,0,0,1.27,2.13A8.81,8.81,0,0,0,42,47.77l.63,0a7,7,0,0,0,5.14-3.81c.25.11.49.24.75.33a1,1,0,0,0,1.29-.58A1,1,0,0,0,49.21,42.39Zm-6.83,3.36a6.51,6.51,0,0,1-3.88-1.17.62.62,0,0,1-.33-.49.74.74,0,0,1,.35-.6,38.73,38.73,0,0,1,4.63-2.78A14.74,14.74,0,0,0,46,43,5,5,0,0,1,42.38,45.75Z"/><path d="M54.56,19.46a3.9,3.9,0,1,0-3.9,3.9A3.9,3.9,0,0,0,54.56,19.46Zm-5.79,0a1.9,1.9,0,1,1,1.89,1.9A1.89,1.89,0,0,1,48.77,19.46Z"/><path d="M36.88,14.43a5.42,5.42,0,1,0-5.41,5.42A5.42,5.42,0,0,0,36.88,14.43Zm-8.83,0a3.42,3.42,0,1,1,3.41,3.42A3.42,3.42,0,0,1,28.05,14.43Z"/><path d="M24.05,23.67a3.9,3.9,0,1,0-3.89,3.89A3.89,3.89,0,0,0,24.05,23.67Zm-5.79,0a1.9,1.9,0,1,1,1.9,1.89A1.9,1.9,0,0,1,18.26,23.67Z"/><path d="M44.13,24.33a12.8,12.8,0,0,0-5.58-2.62A14,14,0,0,0,30.72,23a44.73,44.73,0,0,0-9,6.3,30.43,30.43,0,0,0-6.91,8.13,3.44,3.44,0,0,0-.07,2.86c.25.52.5,1,.73,1.44-2.45-.38-5.34-.46-6.82,0-2.39.91-3.29,4.3-2.1,7.88,1.05,3.13,3.27,5.18,5.48,5.18a3.63,3.63,0,0,0,1-.14c1.41-.47,3.61-2.22,5.33-3.95l.09,1.13A3.18,3.18,0,0,0,20,54.27a29.73,29.73,0,0,0,10.86,2.56c1.34.1,2.68.16,4,.16.84,0,1.66,0,2.47-.07A6.59,6.59,0,0,0,42,54.43a11.34,11.34,0,0,0,.92-1.75c.59-.14,1.17-.29,1.68-.46l.37-.15,0,1.35a2.15,2.15,0,0,0,.8,1.75,2,2,0,0,0,1.79.32,7.4,7.4,0,0,0,4.38-2.93c1.25-2,.66-4.51.28-5.63a17.79,17.79,0,0,0,1.58-2.18C59.22,35.73,54.31,26.36,44.13,24.33Zm-22,18.34a4.25,4.25,0,0,0,2.09,2.46,4,4,0,0,0,3.16.24l.86-.29a4.29,4.29,0,0,0,2.63-2.22,6,6,0,0,1,.49-.72,1.25,1.25,0,0,1,1.17-.55,1.49,1.49,0,0,1,.94,1.17,2.69,2.69,0,0,1-1.8,2.66l-10.19,3.4a10.55,10.55,0,0,1-1-.64c.72-1,1.53-2.45,1.16-3.57s-1.9-1.8-3.07-2.17C20.35,36.38,30.21,28.61,36,26.66a15.4,15.4,0,0,1,8.37-.19,20.89,20.89,0,0,0-9.35,2.08,3.25,3.25,0,0,0-1.54,3c0,.28-.06.55-.11.81a.75.75,0,0,1-.24.43l-1.68,1.28a1.25,1.25,0,0,1-.51.09,5.75,5.75,0,0,1-.91-.07,4.08,4.08,0,0,0-3.2.56l-2.81,2.23A5.31,5.31,0,0,0,22.14,42.67Zm-5.61-4.28A28.81,28.81,0,0,1,23,30.8a42.48,42.48,0,0,1,8.62-6,12,12,0,0,1,6.51-1.11,10.64,10.64,0,0,1,1.27.34,15.64,15.64,0,0,0-4,.76c-5.95,2-15.47,9.22-18.29,15.84-.19-.36-.39-.76-.59-1.18A1.49,1.49,0,0,1,16.53,38.39ZM12.39,52.78c-1.2.34-3.08-1.09-4-3.76s-.25-4.94.87-5.37a7.84,7.84,0,0,1,2.22-.24c2.58,0,7.7.89,8.24,1.81C19.93,46.5,14.67,52,12.39,52.78Zm27.9.55a4.65,4.65,0,0,1-3.06,1.6,47.75,47.75,0,0,1-6.2-.1,27.84,27.84,0,0,1-10.14-2.35,1.22,1.22,0,0,1-.49-.78l-.11-1.25c5.14,3,14.09,3.54,20.11,2.69Zm9.88-1.81a5.85,5.85,0,0,1-3.24,2.07l0-2.42a17.88,17.88,0,0,0,3.57-2.54A4.26,4.26,0,0,1,50.17,51.52ZM52,43.71a15.44,15.44,0,0,1-8.09,6.61C39.25,51.88,30.23,52,24.24,50l8.07-2.7c1.87-.62,3.61-2.83,3.12-5A3.46,3.46,0,0,0,33,39.65a3.17,3.17,0,0,0-3.17,1.18,7.43,7.43,0,0,0-.7,1,2.42,2.42,0,0,1-1.54,1.35l-.86.28a2.08,2.08,0,0,1-1.62-.12A2.28,2.28,0,0,1,24,42a3.33,3.33,0,0,1,1.26-3.62l2.81-2.23c.35-.27.89-.23,1.73-.13a10.74,10.74,0,0,0,1.16.08,2.86,2.86,0,0,0,1.68-.48l1.7-1.3a2.72,2.72,0,0,0,1-1.6c.07-.33.1-.69.14-1,.08-.85.15-1.24.45-1.39,5-2.54,10.72-2,13.86-1.34a10.58,10.58,0,0,1,3.32,4.12l-1.08.72a1,1,0,0,0,.56,1.83,1,1,0,0,0,.55-.16l.62-.42A11.92,11.92,0,0,1,52,43.71Z"/><path d="M45.58,35a2.69,2.69,0,0,0,1.21.28,2.54,2.54,0,0,0,.86-.14,2.71,2.71,0,0,0,1.71-3.42h0a2.7,2.7,0,0,0-5-.36,2.66,2.66,0,0,0-.15,2.07A2.7,2.7,0,0,0,45.58,35Zm.58-2.74a.7.7,0,0,1,.41-.36.78.78,0,0,1,.22,0,.71.71,0,0,1,.67.49.7.7,0,0,1-.45.89.68.68,0,0,1-.54,0,.71.71,0,0,1-.35-.41A.68.68,0,0,1,46.16,32.29Z"/></g></svg>