<?xml version="1.0" ?><svg viewBox="0 0 64 64" xmlns="http://www.w3.org/2000/svg"><defs><style>.cls-1{fill:#4f5e83;}.cls-2{fill:#445171;}.cls-3{fill:#ff5272;}.cls-4{fill:#e64a68;}.cls-5{fill:#1b212d;}</style></defs><g id="Beetle"><path class="cls-1" d="M37.23,17.6A5.84,5.84,0,1,0,26.16,15a5.88,5.88,0,0,0,.57,2.52l2.09,9.84Z" id="path7662-7"/><path class="cls-1" d="M41.56,54.7a17.77,17.77,0,0,1-19.12,0L19.18,41.24l12.73-25.3L46,51.56Z" id="path7659-1"/><path class="cls-2" d="M31.76,17.71l-.75,0-2.19,4.35L38,56.43a18.06,18.06,0,0,0,3.53-1.73L46,51.55,32.63,17.76l-.87-.05Z" id="path9722"/><path class="cls-3" d="M31.78,18.19,43,60A19.7,19.7,0,0,0,56.91,35.87C54.1,25.36,42.29,15.38,31.78,18.19Z" id="path7696-5"/><path class="cls-3" d="M32.22,18.19,21,60A19.7,19.7,0,0,1,7.09,35.87C9.9,25.36,21.71,15.38,32.22,18.19Z" id="path7701-9"/><circle class="cls-1" cx="14.83" cy="44.04" id="path7709-6" r="3.92"/><circle class="cls-1" cx="45.53" cy="38.91" id="path7711-2" r="3.78"/><circle class="cls-1" cx="22.85" cy="28.09" id="path7719-7" r="2.29"/><path class="cls-1" d="M11.75,26.93a26.15,26.15,0,0,0-4,7,4,4,0,0,0,1.45.27,4.11,4.11,0,0,0,2.59-7.3Z" id="path7721-8"/><circle class="cls-1" cx="44.63" cy="27.27" id="circle7737-5" r="2.29"/><path class="cls-4" d="M35.76,17.71a15.4,15.4,0,0,0-2.24.14c8.73,1.14,17.08,9.41,19.39,18A19.7,19.7,0,0,1,42.62,58.63L43,60A19.7,19.7,0,0,0,56.91,35.87C54.45,26.68,45.1,17.88,35.76,17.71Z" id="path9704"/><path class="cls-4" d="M28.24,17.71a17.16,17.16,0,0,0-1.76.14,13.4,13.4,0,0,1,1.74.35L17.38,58.63A19.36,19.36,0,0,0,21,60l11.2-41.8A14.19,14.19,0,0,0,28.24,17.71Z" id="path9706"/><path class="cls-1" d="M54.76,45.5a5.49,5.49,0,0,0-3.38,9.82h0A19.77,19.77,0,0,0,56.93,46a5.37,5.37,0,0,0-2.17-.45Z" id="path9702"/><path class="cls-2" d="M54.76,45.5a5.54,5.54,0,0,0-1.78.3,19.81,19.81,0,0,1-3.39,7,5.44,5.44,0,0,0,1.79,2.48h0A19.77,19.77,0,0,0,56.93,46a5.37,5.37,0,0,0-2.17-.45Z" id="path9702-7"/><path class="cls-5" d="M6.12,35.61A20.73,20.73,0,0,0,20.76,61,1,1,0,0,0,22,60.26l1.08-4a18.81,18.81,0,0,0,17.88,0l1.08,4a1,1,0,0,0,1.22.71A20.71,20.71,0,0,0,57.88,35.61C55.55,26.91,47.42,18.55,38.54,17a7,7,0,0,0,.3-2A6.81,6.81,0,0,0,33,8.23V6.42a1.43,1.43,0,0,1,2.86,0,1,1,0,1,0,2,0A3.42,3.42,0,0,0,34.42,3,3.37,3.37,0,0,0,32,4a3.43,3.43,0,0,0-5.86,2.41,1,1,0,1,0,2,0,1.43,1.43,0,0,1,2.86,0V8.23A6.81,6.81,0,0,0,25.16,15a7.11,7.11,0,0,0,.3,2C16.58,18.56,8.45,26.91,6.12,35.61Zm5.69-7.09a3.1,3.1,0,0,1-2.64,4.71H9.09A25,25,0,0,1,11.81,28.52ZM32,56.49a16.78,16.78,0,0,1-8.4-2.27L32,22.87l8.4,31.35A16.78,16.78,0,0,1,32,56.49Zm22.08-6.17a18.7,18.7,0,0,1-2.72,3.6A4.42,4.42,0,0,1,50.27,51a4.49,4.49,0,0,1,4.49-4.5,5,5,0,0,1,1,.1A18.85,18.85,0,0,1,54.08,50.32ZM56,36.13a18.71,18.71,0,0,1,.26,8.54,6.39,6.39,0,0,0-1.45-.17A6.5,6.5,0,0,0,48.27,51a6.43,6.43,0,0,0,1.63,4.29,18.43,18.43,0,0,1-6.22,3.46L33,19l0-.08C42.79,17.14,53.39,26.59,56,36.13ZM28.57,11.57A4.82,4.82,0,0,1,32,10.15h0A4.83,4.83,0,0,1,36.84,15a4.68,4.68,0,0,1-.33,1.74,16,16,0,0,0-4.51.39,15.66,15.66,0,0,0-4.51-.38,4.84,4.84,0,0,1,1.08-5.17Zm2.37,7.36L31,19,20.32,58.75A18.73,18.73,0,0,1,8.05,36.13c.09-.32.2-.65.31-1a5.4,5.4,0,0,0,.8.07h0a5.11,5.11,0,0,0,3.93-8.36C17.51,21.71,24.29,17.71,30.94,18.93Z"/><path class="cls-5" d="M9.91,44a4.92,4.92,0,1,0,4.92-4.92A4.92,4.92,0,0,0,9.91,44Zm4.92-2.92A2.92,2.92,0,1,1,11.91,44,2.92,2.92,0,0,1,14.83,41.12Z"/><path class="cls-5" d="M45.53,43.68a4.78,4.78,0,1,0-4.78-4.77A4.78,4.78,0,0,0,45.53,43.68Zm0-7.55a2.78,2.78,0,1,1-2.78,2.78A2.79,2.79,0,0,1,45.53,36.13Z"/><path class="cls-5" d="M22.85,31.38a3.29,3.29,0,1,0-3.29-3.29A3.28,3.28,0,0,0,22.85,31.38Zm0-4.57a1.29,1.29,0,1,1-1.29,1.28A1.28,1.28,0,0,1,22.85,26.81Z"/><path class="cls-5" d="M44.62,30.56a3.29,3.29,0,1,0-3.28-3.29A3.29,3.29,0,0,0,44.62,30.56Zm0-4.57a1.29,1.29,0,1,1-1.28,1.28A1.29,1.29,0,0,1,44.62,26Z"/></g></svg>