<?xml version="1.0" ?><svg viewBox="0 0 64 64" xmlns="http://www.w3.org/2000/svg"><defs><style>.cls-1{fill:#767689;}.cls-2{fill:#fcc667;}.cls-3{fill:#f9f9f9;}.cls-4{fill:#fbae36;}.cls-5{fill:#e6e5e1;}.cls-6{fill:#fa5b6e;}.cls-7{fill:#fe8657;}.cls-8{fill:#16244d;}</style></defs><g data-name="Flying Rocket" id="Flying_Rocket"><path class="cls-1" d="M32.55,40.52l-1.21,1.2L33.7,53.83,44,43.49A2.87,2.87,0,0,0,44.45,40l-2.77-4.46L28.32,22.16l-4.39-2.73a2.88,2.88,0,0,0-3.54.41L10.05,30.19l12.11,2.35,1.21-1.21Z" id="path1750-6-9"/><path class="cls-2" d="M29.17,37.14l4.6,4.59,14.8-11.68A39.5,39.5,0,0,0,59.83,4,39.53,39.53,0,0,0,33.77,15.26L22.09,30.06l4.66,4.65Z" id="rect1717-0-1"/><circle class="cls-3" cx="43.88" cy="19.95" id="path1730-4-9" r="4.72"/><path class="cls-3" d="M26.76,39.55l3.38,3.38,2.41-2.41-3.38-3.38-2.42-2.43-3.38-3.38L21,33.75l3.39,3.38Z" id="rect1734-62-6"/><path class="cls-1" d="M34.78,29.1a1.71,1.71,0,0,1,0,2.42L22.85,43.46A1.71,1.71,0,0,1,20.42,41L32.36,29.1A1.71,1.71,0,0,1,34.78,29.1Z" id="rect1737-67-2"/><path class="cls-4" d="M59.83,4c-1,.06-2.06.16-3.07.29a39.11,39.11,0,0,1-11,23L31,39l2.79,2.78,14.8-11.68A39.5,39.5,0,0,0,59.83,4Z" id="path7836-5"/><path class="cls-3" d="M59.83,4A43,43,0,0,0,49.77,5.77s0,.15,0,.15a22.91,22.91,0,0,0,3.56,4.57,23.66,23.66,0,0,0,4.57,3.56l.13.06A43,43,0,0,0,59.83,4Z" id="path1727-0-44"/><path class="cls-5" d="M59.83,4c-1,.06-2.06.16-3.07.29A41.64,41.64,0,0,1,55,12a22.62,22.62,0,0,0,2.87,2l.13.06A43,43,0,0,0,59.83,4Z" id="path7852-9"/><path class="cls-6" d="M17.54,55.66c-2.49,2.49-10,6-12.51,3.48s1-10,3.48-12.5a6.38,6.38,0,0,1,9,9Z" id="path2052-7"/><path class="cls-7" d="M17.54,51.68c-1.39,1.39-5.6,3.33-7,1.94s.55-5.59,1.95-7a3.56,3.56,0,1,1,5,5Z" id="path2055-4"/><path class="cls-8" d="M59.53,3.23A40.47,40.47,0,0,0,33.07,14.67c-.1.1,0,0-4.92,6.23l-3.58-2.23a3.83,3.83,0,0,0-4.75.55L9.57,29.46a1,1,0,0,0-.25,1,1,1,0,0,0,.77.69l10.19,2a1,1,0,0,0-.2.56,1,1,0,0,0,.3.71L23,37.05l-3.17,3.17A2.7,2.7,0,0,0,23.67,44l3.16-3.16,2.64,2.64a1,1,0,0,0,1.27.1l2,10.18a1,1,0,0,0,.7.77.92.92,0,0,0,.29,0,1,1,0,0,0,.71-.29L44.67,44.06a3.81,3.81,0,0,0,.54-4.74l-2.27-3.66c6-4.69,6.11-4.81,6.21-4.91A40.33,40.33,0,0,0,60.59,4.29a1,1,0,0,0-1.06-1.06Zm-2.31,9.46A21.52,21.52,0,0,1,53.88,10a21.59,21.59,0,0,1-2.75-3.34,41.71,41.71,0,0,1,7.38-1.29A41.44,41.44,0,0,1,57.22,12.69Zm-36,8a1.82,1.82,0,0,1,2.27-.26l3.39,2.11-5.47,6.94a1,1,0,0,0,.08,1.33l.55.55-.11.11-9.62-1.87ZM22.51,33.7l1-1,1.93,1.93-1,1Zm-.26,8.91a.69.69,0,1,1-1-1L33.1,29.81a.69.69,0,0,1,1,0h0a.7.7,0,0,1,0,1l-5.56,5.56h0l-2.38,2.39h0Zm6-3.16,1-1,1.92,1.93-1,1Zm15.26.93a1.83,1.83,0,0,1-.26,2.26l-8.91,8.91-1.87-9.61.1-.11.5.49a1,1,0,0,0,.71.29,1,1,0,0,0,.62-.21l7-5.49Zm4.26-11.09-13.91,11-3.21-3.21,4.85-4.85a2.7,2.7,0,0,0,0-3.82,2.77,2.77,0,0,0-3.82,0l-4.85,4.85L23.56,30l11-13.92A36.77,36.77,0,0,1,49.13,7.21a23.38,23.38,0,0,0,3.33,4.16,23.32,23.32,0,0,0,4.16,3.32A36.87,36.87,0,0,1,47.77,29.29Z"/><path class="cls-8" d="M47.81,16a5.68,5.68,0,1,0-8,8,5.68,5.68,0,0,0,8-8Zm-1.42,6.62a3.67,3.67,0,1,1,0-5.2A3.68,3.68,0,0,1,46.39,22.63Z"/><path class="cls-8" d="M18.25,45.93h0a7.38,7.38,0,0,0-10.44,0C5.29,48.44,1.18,56.71,4.32,59.85A4.43,4.43,0,0,0,7.57,61c3.76,0,8.81-2.75,10.68-4.62A7.39,7.39,0,0,0,18.25,45.93Zm-1.42,5c-1.41,1.4-4.89,2.62-5.57,1.94s.54-4.16,2-5.56A2.5,2.5,0,0,1,15,46.6,2.56,2.56,0,0,1,16.83,51ZM5.74,58.43c-1.79-1.79,1-8.55,3.48-11.08a5.34,5.34,0,0,1,2.56-1.42c-1.58,1.59-3.95,6.39-1.94,8.4A3,3,0,0,0,12,55.1a10.63,10.63,0,0,0,6.24-2.7A5.4,5.4,0,0,1,16.83,55C14.3,57.48,7.53,60.22,5.74,58.43Z"/></g></svg>