<?xml version="1.0" ?><svg viewBox="0 0 64 64" xmlns="http://www.w3.org/2000/svg"><defs><style>.cls-1{fill:#756d78;}.cls-2{fill:#655e66;}.cls-3{fill:#f1ccc6;}.cls-4{fill:#ebafa5;}</style></defs><g id="Slug"><path class="cls-1" d="M31.16,45.93a15.3,15.3,0,0,1-12.4,3.55c-4.35-.65-9-3.5-9.44-9.24-1-13.4,7.79-19.71,17.39-19.71,8,0,14.7,7.69,16.76,15l4.32,9.68L44,49.32Z" id="path36063-6"/><path class="cls-1" d="M55,18.8a1.89,1.89,0,1,1-1.89-1.88A1.89,1.89,0,0,1,55,18.8Z" id="path43624-2"/><path class="cls-1" d="M54.86,11.85A1.89,1.89,0,1,1,53,10,1.89,1.89,0,0,1,54.86,11.85Z" id="path45173-6"/><path class="cls-2" d="M38.89,27V42A3.93,3.93,0,0,1,35,45.93h-3.8L44,49.32l3.76-4.1-4.32-9.68A23.57,23.57,0,0,0,38.89,27Z" id="path100007"/><path class="cls-3" d="M47.05,29.49a3.58,3.58,0,0,0-3.59,3.58V42a3.93,3.93,0,0,1-3.93,3.93H31.16a15.33,15.33,0,0,1-12.4,3.55,12.27,12.27,0,0,1-6.3-2.82h0a10.69,10.69,0,0,0-5.33,6.2C6.56,54.55,8.06,56,9.85,56H39.53a14,14,0,0,0,14-14V36A6.52,6.52,0,0,0,47.05,29.49Z" id="rect32302-0"/><path class="cls-4" d="M47.05,29.49a3.44,3.44,0,0,0-1.29.24A6.52,6.52,0,0,1,50.54,36v6a14,14,0,0,1-14,14h3a14,14,0,0,0,14-14V36A6.52,6.52,0,0,0,47.05,29.49Z" id="path94765"/><path d="M53.11,15.92a2.88,2.88,0,0,0-2.74,2A3.24,3.24,0,0,0,48,21v7.54a7.14,7.14,0,0,0-.93-.09,4.31,4.31,0,0,0-1.21.18V18.09a5.23,5.23,0,0,1,4.45-5.16,2.9,2.9,0,1,0,0-2,7.24,7.24,0,0,0-6.4,7.16V29.81a4.4,4.4,0,0,0-1,1.42c-3.08-6.2-9-11.7-16.15-11.7a18.52,18.52,0,0,0-13.85,5.6c-3.45,3.72-5,9-4.54,15.19a10.2,10.2,0,0,0,2.52,6.11,11.76,11.76,0,0,0-4.67,6.11,3.19,3.19,0,0,0,.45,2.91A3.93,3.93,0,0,0,9.85,57H39.53a15.06,15.06,0,0,0,15-15V36A7.53,7.53,0,0,0,50,29.08V21a1.22,1.22,0,0,1,.54-1,2.88,2.88,0,1,0,2.59-4.13ZM53,11a.89.89,0,1,1-.89.89A.89.89,0,0,1,53,11ZM14.32,26.49a16.58,16.58,0,0,1,12.39-5c7.34,0,13.74,7.17,15.75,14.15V42a2.93,2.93,0,0,1-2.93,2.93H33.31A12.11,12.11,0,0,0,35,41.87a11,11,0,0,0-1-10.2,10.32,10.32,0,0,0-8.64-4.25c-4.58,0-9.33,3.17-9.33,8.43a6.17,6.17,0,0,0,1.6,4.3,6.32,6.32,0,0,0,5,1.63,4.36,4.36,0,0,0,3.54-1.67c1.38-1.87.69-4.54.66-4.65a1,1,0,0,0-1.22-.71A1,1,0,0,0,24.93,36a4,4,0,0,1-.34,3,2.46,2.46,0,0,1-2,.85,4.39,4.39,0,0,1-3.45-1,4.17,4.17,0,0,1-1-2.85c0-4.06,3.73-6.48,7.33-6.48a8.34,8.34,0,0,1,7,3.4,9,9,0,0,1,.72,8.36C31,47.05,24.35,49.3,18.91,48.49c-3.89-.58-8.2-3.07-8.6-8.32C9.88,34.52,11.27,29.79,14.32,26.49ZM52.57,36v6a13.06,13.06,0,0,1-13,13H9.85a2,2,0,0,1-1.61-.76,1.16,1.16,0,0,1-.17-1.11,9.82,9.82,0,0,1,4.29-5.32,13.69,13.69,0,0,0,6.26,2.62,16.33,16.33,0,0,0,2.45.18,16,16,0,0,0,10.42-3.72h8A4.93,4.93,0,0,0,44.46,42V33.07a2.59,2.59,0,0,1,2.59-2.58A5.53,5.53,0,0,1,52.57,36Zm.54-16.32A.89.89,0,1,1,54,18.8.89.89,0,0,1,53.11,19.69Z"/></g></svg>