<?xml version="1.0" ?><svg viewBox="0 0 64 64" xmlns="http://www.w3.org/2000/svg"><defs><style>.cls-1{fill:#655e66;}.cls-2{fill:#dbe4eb;}.cls-3{fill:#f7f8fa;}.cls-4{fill:#e7ecf0;}</style></defs><g id="Narwhal"><path class="cls-1" d="M42.4,21l11.28-3.72a1.82,1.82,0,0,0,1.26-2.19h0a1.81,1.81,0,0,0-2.18-1.25L38.94,16.81l-1.06,4.94Z" id="rect137614-7"/><path class="cls-2" d="M24.23,32.76l0,4.31a8.39,8.39,0,0,0,5.21-2.86l2.7-1.87-.76-4L28,27.44Z" id="path358654-7-5"/><path class="cls-3" d="M36.5,30.72l6.65-2.54a3,3,0,0,0,1.91-3.27c-.1-1.72-.81-3-3.12-4.12A3.43,3.43,0,0,1,40.44,19a5.21,5.21,0,0,0-5.33-3.48l-10.92.88A18.63,18.63,0,0,0,9.1,43.6a1,1,0,0,1-.36,1.32,4.34,4.34,0,0,0-1.49,4.93l.39,1.08A1.87,1.87,0,0,0,10,52.07l1.11-.39a4.34,4.34,0,0,0,2.38-2.08,4.35,4.35,0,0,0,3.16.1l1.11-.39a1.89,1.89,0,0,0,1.14-2.41l-.39-1.08A4.31,4.31,0,0,0,14.32,43a1,1,0,0,1-1.06-.82c-.41-3.43-1.06-7.89,1.4-9.49,1.7-1.1,3.77-1.22,6.89-.42,2.84.73,4.84,1.12,7.88-.93Z" id="path358648-9-9"/><path class="cls-4" d="M37.05,29.2c-2.1,7.08-7.67,7.45-7.67,7.45l.06-6.06c0-1.81.78-1.73,2.47-2.38l3.6-1.39C36.33,26.51,37.48,27.77,37.05,29.2Z" id="path358650-7-2"/><path class="cls-4" d="M32.26,15.83A5.62,5.62,0,0,1,38,19.58a3.61,3.61,0,0,0,1.61,1.91c2.49,1.24,3.26,2.59,3.37,4.44a3.71,3.71,0,0,1-.72,2.58l.87-.33a3,3,0,0,0,1.91-3.27c-.1-1.72-.81-3-3.12-4.12A3.39,3.39,0,0,1,40.44,19a5.22,5.22,0,0,0-4.88-3.5l-.45,0Z" id="path315172-2"/><path d="M6.7,51.26a2.89,2.89,0,0,0,2.72,1.92,2.94,2.94,0,0,0,1-.17l1.1-.39A5.29,5.29,0,0,0,14,50.79,5.2,5.2,0,0,0,17,50.64l1.1-.39a2.88,2.88,0,0,0,1.64-1.48,2.85,2.85,0,0,0,.11-2.2l-.38-1.08A5.22,5.22,0,0,0,14.26,42l0-.4c-.38-3.09-.85-6.93,1-8.13,1.44-.93,3.27-1,6.1-.29.68.17,1.31.32,1.92.42l0,3.45a1,1,0,0,0,.31.74,1,1,0,0,0,.75.27,9.11,9.11,0,0,0,4.13-1.64v.21a1,1,0,0,0,.31.74,1,1,0,0,0,.75.27c.23,0,5.17-.44,7.8-6.14l6.26-2.4a4,4,0,0,0,2.56-4.26,5.06,5.06,0,0,0-1.51-3.48L54,18.26a2.78,2.78,0,0,0-1.44-5.37L39.18,15.73A6.23,6.23,0,0,0,35,14.54l-10.92.88A19.63,19.63,0,0,0,8.21,44a.16.16,0,0,1-.07.08,5.31,5.31,0,0,0-1.83,6.06ZM25.2,35.83l0-2A7.69,7.69,0,0,0,28.41,33v.78A7.93,7.93,0,0,1,25.2,35.83Zm5.19-.41V34.15l0-3.55c0-.81,0-.81,1-1.17l.79-.28,3.51-1.36a1,1,0,0,1,.31,1.13C34.75,33.42,31.94,34.92,30.39,35.42ZM53,14.84a.79.79,0,1,1,.4,1.52L42.49,20a2.38,2.38,0,0,1-1.1-1.26,6.62,6.62,0,0,0-.62-1.25ZM9.34,45.72A2,2,0,0,0,10,43.14,17.66,17.66,0,0,1,24.27,17.42l10.92-.88a4.21,4.21,0,0,1,4.31,2.8,4.3,4.3,0,0,0,2,2.34c2,1,2.48,2,2.56,3.29a2,2,0,0,1-1.27,2.27l-4.71,1.81a3,3,0,0,0-.88-2.68,2,2,0,0,0-2-.48l-3.61,1.39-.72.26c-1.22.42-2.37.82-2.39,3v.15c-2.41,1.47-4.06,1.18-6.63.52-3.43-.88-5.73-.72-7.69.56-2.88,1.87-2.33,6.4-1.89,10.05l0,.39a2,2,0,0,0,2.09,1.69,3.37,3.37,0,0,1,3.25,2.22L18,47.24a.86.86,0,0,1-.53,1.12l-1.1.4a3.34,3.34,0,0,1-2.43-.08,1,1,0,0,0-1.29.46,3.26,3.26,0,0,1-1.83,1.59l-1.1.4a.88.88,0,0,1-1.13-.54L8.2,49.51A3.3,3.3,0,0,1,9.34,45.72Z"/><path d="M35.57,20.36a1,1,0,0,0,1,.72.86.86,0,0,0,.28,0,1,1,0,0,0,.68-1.24l-.27-.93A1,1,0,0,0,36,18.19a1,1,0,0,0-.69,1.24Z"/></g></svg>