<?xml version="1.0" ?><svg viewBox="0 0 64 64" xmlns="http://www.w3.org/2000/svg"><defs><style>.cls-1{fill:#fcd1aa;}.cls-2{fill:#ff5272;}.cls-3{fill:#fbbd86;}.cls-4{fill:#e64a68;}.cls-5{fill:#ffef52;}.cls-6{fill:#e6d74a;}.cls-7{fill:#52bdff;}.cls-8{fill:#4aaae6;}.cls-9{fill:#1b212d;}</style></defs><g data-name="Ice Cream" id="Ice_Cream-3"><path class="cls-1" d="M20.57,23.14,4,60l36.9-16.6Z" id="rect6950-6"/><path class="cls-2" d="M37.69,10.51A11.77,11.77,0,1,1,56.52,24.14a11.64,11.64,0,0,1-3,2.18l-11.1,4-9.85-8.41Z" id="circle6973-8"/><path class="cls-3" d="M20.57,23.14l-2.05,4.55a12.13,12.13,0,0,0,1.28,1.52,12.57,12.57,0,0,0,1.17,1l-2.63,2.63A2.25,2.25,0,1,0,21.52,36l3.74-3.74c.19.05.39.07.58.11l1.75,1.75a11.73,11.73,0,0,0,9.27,9.28L5,57.79,4,60l36.9-16.6c-2.38-10.34-9.62-16.72-20.3-20.3Z" id="path9184"/><path class="cls-4" d="M48.25,4A11.86,11.86,0,0,0,46,4.19,11.76,11.76,0,0,1,49.5,26.32l-8.18,3,1.13,1,11.1-4a11.75,11.75,0,0,0,3-18.83A11.74,11.74,0,0,0,48.25,4Z" id="path9169"/><path class="cls-5" d="M31.38,32.63a11.77,11.77,0,1,0,20-9.17h0a11.81,11.81,0,0,0-7.48-3.32Z" id="path6953-3"/><path class="cls-6" d="M43.87,20.14l-.7.7a11.81,11.81,0,0,1,4.18,2.62l.1.1a11.76,11.76,0,0,1-6.33,19.92,11.77,11.77,0,1,0,2.75-23.34Z" id="path9171"/><path class="cls-7" d="M23.8,12.56a11.77,11.77,0,0,0,0,16.65,12.57,12.57,0,0,0,1.17,1l-2.63,2.63A2.25,2.25,0,1,0,25.52,36l3.74-3.74A11.75,11.75,0,1,0,23.8,12.56Z" id="circle6957-94"/><path class="cls-8" d="M32,9.13a11.81,11.81,0,0,0-2,.18,11.85,11.85,0,0,1,6.3,3.25,11.71,11.71,0,0,1-6.29,19.91A11.75,11.75,0,1,0,32,9.13ZM25.26,32.3,22,35.57a2.3,2.3,0,0,0,.35.47,2.25,2.25,0,0,0,3.18,0L29,32.6a11.6,11.6,0,0,1-3.7-.3Z" id="path9173"/><path class="cls-9" d="M4,61A1,1,0,0,0,4.38,61L41,44.48a13.48,13.48,0,0,0,2.12.18h0A12.76,12.76,0,0,0,54.81,26.74,12.73,12.73,0,0,0,61,15.81,12.77,12.77,0,0,0,48.2,3h0a12.75,12.75,0,0,0-11,6.22A12.7,12.7,0,0,0,19.35,20.88,12.38,12.38,0,0,0,19.54,23L3.06,59.63a1,1,0,0,0,.21,1.12A1,1,0,0,0,4,61ZM50.75,39.51a10.73,10.73,0,0,1-7.62,3.15h0a10.71,10.71,0,0,1-7.62-3.15,10.82,10.82,0,0,1-3-5.88,12.83,12.83,0,0,0,8.66-3.72,12.63,12.63,0,0,0,3.71-8.64,10.77,10.77,0,0,1,5.88,18.24ZM40.58,8.2A10.7,10.7,0,0,1,48.2,5h0a10.78,10.78,0,0,1,7.62,18.39,10.4,10.4,0,0,1-2,1.54,12.7,12.7,0,0,0-9.1-5.74,12.59,12.59,0,0,0-3.68-7.39A12.92,12.92,0,0,0,39,10.19,10.75,10.75,0,0,1,40.58,8.2ZM24.51,13.27h0A10.77,10.77,0,0,1,39.74,28.5,10.84,10.84,0,0,1,29.5,31.33a1,1,0,0,0-.95.26l-3.73,3.74a1.25,1.25,0,0,1-1.77,0,1.24,1.24,0,0,1,0-1.77l2.63-2.62a1,1,0,0,0,.29-.78,1.06,1.06,0,0,0-.39-.73,9.51,9.51,0,0,1-1.07-.93A10.78,10.78,0,0,1,24.51,13.27ZM20.4,26a13.17,13.17,0,0,0,2.69,4l.4.37-1.85,1.86a3.21,3.21,0,0,0-1,2.3,3.24,3.24,0,0,0,3.25,3.25,3.23,3.23,0,0,0,2.3-1l3.35-3.34c.3.06.6.08.89.12a12.72,12.72,0,0,0,3.63,7.4,12.58,12.58,0,0,0,4,2.69l-6.32,2.84a36.25,36.25,0,0,1-8-6.19,36.45,36.45,0,0,1-6.19-8Zm-3.85,8.55a41.18,41.18,0,0,0,5.79,7.17,40.65,40.65,0,0,0,7.16,5.78l-5.9,2.65a25,25,0,0,1-5.46-4.23,25.37,25.37,0,0,1-4.24-5.47ZM12.9,42.63a28.85,28.85,0,0,0,3.83,4.66,29.25,29.25,0,0,0,4.65,3.82l-5.32,2.4a14.67,14.67,0,0,1-3.12-2.44A14.18,14.18,0,0,1,10.51,48Zm-3.37,7.5a17.61,17.61,0,0,0,2,2.36,18.54,18.54,0,0,0,2.35,2L6,58.05Z"/><path class="cls-9" d="M27.31,25.29a1,1,0,0,0-1.41,0,1,1,0,0,0,0,1.42,8.14,8.14,0,0,0,11.5,0A1,1,0,0,0,36,25.29,6.14,6.14,0,0,1,27.31,25.29Z"/><path class="cls-9" d="M31.09,15.47a1.26,1.26,0,0,0,.33,0,1,1,0,0,0,.94-.68l.37-1.06a1,1,0,0,0-1.9-.65l-.36,1.07A1,1,0,0,0,31.09,15.47Z"/><path class="cls-9" d="M48.9,10.84a.78.78,0,0,0,.26,0l1.09-.29a1,1,0,0,0-.52-1.93l-1.09.29a1,1,0,0,0,.26,2Z"/><path class="cls-9" d="M54.63,19.45a.84.84,0,0,0,.38.08,1,1,0,0,0,.93-.61l.43-1a1,1,0,0,0-1.85-.77l-.43,1A1,1,0,0,0,54.63,19.45Z"/><path class="cls-9" d="M47.75,24.79l-1.09.29a1,1,0,0,0,.26,2,1.15,1.15,0,0,0,.26,0l1.09-.29a1,1,0,0,0-.52-1.94Z"/><path class="cls-9" d="M51.23,33.64a1,1,0,0,0-1.23.71l-.29,1.08a1,1,0,0,0,.71,1.23l.26,0a1,1,0,0,0,1-.74l.29-1.09A1,1,0,0,0,51.23,33.64Z"/><path class="cls-9" d="M42.39,38a1,1,0,0,0-1.22,1.58l.9.69a1,1,0,0,0,.6.2,1,1,0,0,0,.61-1.79Z"/><path class="cls-9" d="M44.24,32.24a1,1,0,0,0-1.34-.45,1,1,0,0,0-.45,1.34l.5,1a1,1,0,0,0,.89.55,1,1,0,0,0,.45-.1,1,1,0,0,0,.45-1.34Z"/><path class="cls-9" d="M38,15.72a1,1,0,0,0,.6.19,1,1,0,0,0,.59-1.8l-.9-.67a1,1,0,1,0-1.19,1.61Z"/><path class="cls-9" d="M25.32,20.25a1,1,0,0,0,.33-.06l1.06-.38A1,1,0,1,0,26,17.93L25,18.3a1,1,0,0,0,.34,1.95Z"/><path class="cls-9" d="M32.58,19.79l.5,1a1,1,0,0,0,.9.56,1,1,0,0,0,.89-1.45l-.49-1a1,1,0,1,0-1.8.88Z"/><path class="cls-9" d="M38.48,21.7l-.44,1a1,1,0,0,0,.54,1.31,1.07,1.07,0,0,0,.39.07,1,1,0,0,0,.92-.61l.43-1a1,1,0,0,0-.54-1.31A1,1,0,0,0,38.48,21.7Z"/><path class="cls-9" d="M50.23,15.76a1,1,0,0,0-1.8.89l.5,1a1,1,0,0,0,.9.55,1,1,0,0,0,.44-.1,1,1,0,0,0,.45-1.34Z"/></g></svg>