<?xml version="1.0" ?><svg viewBox="0 0 64 64" xmlns="http://www.w3.org/2000/svg"><defs><style>.cls-1{fill:#ff5272;}.cls-2{fill:#52bdff;}.cls-3{fill:#52ffaa;}.cls-4{fill:#ffef52;}.cls-5{fill:#ff9052;}.cls-6{fill:#1b212d;}</style></defs><g id="Rainbow"><path class="cls-1" d="M4,60H40.43A19.57,19.57,0,0,1,60,40.43V4A56,56,0,0,0,4,60Z" id="circle5387-2"/><path class="cls-2" d="M59.57,10.16A49.84,49.84,0,0,0,10.16,59.67l.11.33H40.43A19.57,19.57,0,0,1,60,40.43V10.56Z" id="path5444-7"/><path class="cls-3" d="M59.86,16.18A43.82,43.82,0,0,0,16.18,60H40.43A19.57,19.57,0,0,1,60,40.43V16.18Z" id="path8894"/><path class="cls-4" d="M59.68,22.37A37.52,37.52,0,0,0,22.37,59.64l.24.36H40.43A19.57,19.57,0,0,1,60,40.43V22.85Z" id="path5449-4"/><path class="cls-5" d="M59.73,28.48A31.43,31.43,0,0,0,28.48,59.71l.15.29h11.8A19.57,19.57,0,0,1,60,40.43V28.48Z" id="path5402-4"/><path class="cls-1" d="M59.78,34.25A25.75,25.75,0,0,0,34.25,60h6.18A19.57,19.57,0,0,1,60,40.43V34.25Z" id="path5432-5"/><path class="cls-6" d="M60,3h-.15A57.09,57.09,0,0,0,3,60a1,1,0,0,0,1,1H40.43a1,1,0,0,0,1-1A18.61,18.61,0,0,1,59.86,41.43H60a1,1,0,0,0,1-1V4A1,1,0,0,0,60,3ZM59,39.45A20.64,20.64,0,0,0,39.45,59H35.28A24.81,24.81,0,0,1,59,35.28Zm0-6.17A26.83,26.83,0,0,0,33.28,59H29.51A30.46,30.46,0,0,1,59,29.5Zm0-5.78A32.46,32.46,0,0,0,27.51,59H23.4A36.55,36.55,0,0,1,59,23.39Zm0-6.11A38.57,38.57,0,0,0,21.39,59H17.21A42.87,42.87,0,0,1,59,17.21Zm0-6.18A44.86,44.86,0,0,0,15.21,59h-4A49,49,0,0,1,59,11.18Zm0-6A51,51,0,0,0,9.18,59H5A55.09,55.09,0,0,1,59,5Z"/></g></svg>