<?xml version="1.0" ?><svg id="Слой_6" style="enable-background:new 0 0 192 192;" version="1.1" viewBox="0 0 192 192" xml:space="preserve" xmlns="http://www.w3.org/2000/svg" xmlns:xlink="http://www.w3.org/1999/xlink"><style type="text/css">
	.st0{fill-rule:evenodd;clip-rule:evenodd;fill:#FFCF48;}
	.st1{fill-rule:evenodd;clip-rule:evenodd;fill:#FFBC33;}
</style><g><path class="st0" d="M130.9,159.9c-1.4,0-2.7-0.3-4-1l-30.6-16.1c-0.6-0.3-1.2-0.5-1.9-0.5s-1.3,0.2-1.9,0.5l-30.6,16.1   c-1.3,0.7-2.6,1-4,1c-2.5,0-4.9-1.1-6.6-3.1c-1.6-1.9-2.3-4.4-1.9-6.9l5.8-34.1c0.2-1.3-0.2-2.7-1.2-3.6L29.3,88   c-2.3-2.3-3.2-5.7-2.2-8.8c1-3.1,3.7-5.4,6.9-5.8l34.2-5c1.3-0.2,2.5-1,3.1-2.2l15.3-31c1.5-2.9,4.4-4.8,7.7-4.8   c3.3,0,6.2,1.8,7.7,4.8l15.3,31c0.6,1.2,1.7,2,3.1,2.2l34.2,5c3.2,0.5,5.9,2.7,6.9,5.8c1,3.1,0.2,6.5-2.2,8.8l-24.8,24.1   c-1,0.9-1.4,2.3-1.2,3.6l5.8,34.1c0.4,2.5-0.2,5-1.9,6.9C135.8,158.7,133.4,159.9,130.9,159.9z"/><path d="M94.4,32.7c2.2,0,4.5,1.2,5.7,3.5l15.3,31c0.9,1.9,2.7,3.2,4.7,3.5l34.2,5c5.2,0.8,7.2,7.1,3.5,10.8L133,110.5   c-1.5,1.4-2.2,3.5-1.8,5.6l5.8,34.1c0.7,4.1-2.5,7.4-6.2,7.4c-1,0-2-0.2-2.9-0.7l-30.6-16.1c-0.9-0.5-1.9-0.7-2.9-0.7   s-2,0.2-2.9,0.7l-30.6,16.1c-1,0.5-2,0.7-2.9,0.7c-3.7,0-6.9-3.3-6.2-7.4l5.8-34.1c0.4-2-0.3-4.1-1.8-5.6L30.9,86.4   c-3.7-3.6-1.7-10,3.5-10.8l34.2-5c2.1-0.3,3.8-1.6,4.7-3.5l15.3-31C89.9,33.8,92.1,32.7,94.4,32.7 M94.4,28.2c-4.1,0-7.9,2.3-9.7,6   l-15.3,31c-0.3,0.5-0.8,0.9-1.4,1l-34.2,5c-4.1,0.6-7.4,3.4-8.7,7.4c-1.3,3.9-0.2,8.2,2.7,11.1l24.8,24.1c0.4,0.4,0.6,1,0.5,1.6   l-5.8,34.1c-0.5,3.2,0.3,6.3,2.4,8.8c2.1,2.5,5.1,3.9,8.3,3.9c1.8,0,3.4-0.4,5-1.3l30.6-16.1c0.3-0.1,0.5-0.2,0.8-0.2   s0.6,0.1,0.8,0.2l30.6,16.1c1.6,0.8,3.3,1.3,5,1.3c3.2,0,6.2-1.4,8.3-3.9c2-2.4,2.9-5.6,2.4-8.8l-5.8-34.1   c-0.1-0.6,0.1-1.2,0.5-1.6l24.8-24.1c3-2.9,4-7.1,2.7-11.1c-1.3-3.9-4.6-6.8-8.7-7.4l-34.2-5c-0.6-0.1-1.1-0.5-1.4-1l-15.3-31   C102.2,30.5,98.5,28.2,94.4,28.2L94.4,28.2z"/></g><g><g><path class="st1" d="M61.7,150.2l5.8-34.1c0.2-1,2.9-12.8,6.7-24.5s8.7-23.5,9.2-24.4l15.3-31c0.2-0.4,0.4-0.7,0.7-1    c-2.7-3.6-8.5-3.3-10.7,1l-15.3,31c-0.9,1.9-2.7,3.2-4.7,3.5l-34.2,5c-5.2,0.8-7.2,7.1-3.5,10.8l24.8,24.1    c1.5,1.4,2.2,3.5,1.8,5.6l-5.8,34.1c-0.9,5.2,4.5,9.1,9.2,6.6l2.5-1.3C62,154.2,61.3,152.3,61.7,150.2z"/></g></g></svg>