<?xml version="1.0" ?><svg viewBox="0 0 32 32" xmlns="http://www.w3.org/2000/svg"><defs><style>.cls-1{fill:#f6e781;}.cls-2{fill:#f4dd45;}.cls-3{fill:#da4a54;}.cls-4{fill:#d82e3d;}.cls-5{fill:#23232b;}</style></defs><g id="Trumpet"><path class="cls-1" d="M14.53,15c2.22-2.74,1.52-4.35,4.68-9.25l7.38,7.37c-2.07,1.34-2.71.34-4.09,1.19l-6.73,1.94Zm-5.73,6L5.26,24.48,2,25.93l3.64,3.64,1.41-3.22L8.3,25.1l2.08-1Z" id="rect3865-4"/><path class="cls-2" d="M20.16,13.5a3.91,3.91,0,0,0-2.79,1.13l-8,8a4,4,0,0,0,5.65,5.64l8-8a4,4,0,0,0-.05-5.6,4,4,0,0,0-2.81-1.18Zm-.06,2.64a1.41,1.41,0,0,1,1,.43,1.34,1.34,0,0,1,0,2l-7.77,7.78a1.33,1.33,0,0,1-2,0,1.35,1.35,0,0,1,0-2l7.78-7.77a1.35,1.35,0,0,1,1-.43Z" id="rect3870-3"/><path class="cls-3" d="M15.77,16.24,13.43,13.9,7.6,19.73l2.34,2.34Z" id="rect3886-4"/><path class="cls-2" d="M19.21,5.74c-3.16,4.9-2.46,6.51-4.69,9.25l1.25,1.25.22-.06c.78-1.46,1-2.83,2.11-5a2.26,2.26,0,0,1,3.62-.61L25,13.81a4.67,4.67,0,0,0,1.61-.69Z" id="path4294"/><path class="cls-4" d="M13.43,13.9l-1.78,1.78L14,18l1.78-1.78Z" id="path4299"/><path class="cls-5" d="M1.7,25.24a.75.75,0,0,0-.23,1.22L5.11,30.1a.76.76,0,0,0,1.22-.23l1.35-3.09.07-.06a4.65,4.65,0,0,0,1.18,2,4.74,4.74,0,0,0,3.37,1.41,4.62,4.62,0,0,0,3.29-1.36l8-8a4.69,4.69,0,0,0,.36-6.16h.2A4.92,4.92,0,0,0,27,13.74a.75.75,0,0,0,.34-.55.77.77,0,0,0-.22-.61L19.74,5.21a.74.74,0,0,0-1.16.12A25.58,25.58,0,0,0,15.77,11a11.87,11.87,0,0,1-1.33,2.82L14,13.37a.74.74,0,0,0-1.06,0l-.17.17L12.2,13a.75.75,0,1,0-1.06,1.06l.53.53L10.5,15.76,10,15.24A.75.75,0,1,0,8.92,16.3l.52.52L8.12,18.15l-.53-.53a.75.75,0,1,0-1.06,1.06l.53.53a.74.74,0,0,0,0,1.05l.68.68L4.82,23.85Zm20.79-5.49-8,8a3.24,3.24,0,0,1-4.59-4.58l.52-.53h0l7.43-7.44a3.25,3.25,0,0,1,4.59,4.59Zm-5.31-8.21a23.53,23.53,0,0,1,2.17-4.61l6,6a3.5,3.5,0,0,1-1.27.22,3.76,3.76,0,0,0-1.52.28,4.65,4.65,0,0,0-5.71.67l-1.07,1.08-.25-.25A12.78,12.78,0,0,0,17.18,11.54Zm-2.47,4.7L9.94,21,8.66,19.74l0,0L13.43,15ZM5.79,25l3-3,.08.07a4.59,4.59,0,0,0-1.3,2.69L6.52,25.82a.94.94,0,0,0-.16.23l-1,2.21L3.3,26.17l2.26-1A.87.87,0,0,0,5.79,25Z"/><path class="cls-5" d="M18.59,16l-7.78,7.77a2.14,2.14,0,0,0,3,3l7.78-7.78a2.14,2.14,0,0,0-3-3Zm-5.81,9.74a.59.59,0,0,1-.9,0,.59.59,0,0,1,0-.9l2.05-2,.91.9ZM20.56,18l-4.67,4.67-.91-.9,4.67-4.67a.59.59,0,0,1,.9,0A.59.59,0,0,1,20.56,18Z"/><path class="cls-5" d="M25.86,7.63,28.45,5A.75.75,0,1,0,27.39,4l-2.6,2.59a.75.75,0,0,0,.54,1.28A.74.74,0,0,0,25.86,7.63Z"/><path class="cls-5" d="M30,8.79H26.33a.75.75,0,0,0,0,1.5H30a.75.75,0,0,0,0-1.5Z"/><path class="cls-5" d="M23.64,6.1V2.43a.75.75,0,1,0-1.5,0V6.1a.75.75,0,1,0,1.5,0Z"/></g></svg>